<svg role="img" viewBox="0 0 24 24" xmlns="http://www.w3.org/2000/svg"><title>Hashcat</title><path fill="#FFFFFF" d="M11.977 0c-.77.003-1.534.136-2.01.4C9.07.875 7.935.98 6.51.663L5.453.453l.818.765c.977.924 1.664 2.428 1.664 3.67 0 1.029 1.161 2.507 2.375 3.009.792.316.819.396.66 1.557-.791 5.887-1.504 8.422-2.771 9.873-1.083 1.268-1.32 1.875-1.32 3.326V24h10.295v-1.347c0-1.425-.237-2.032-1.267-3.273-1.293-1.557-2.217-4.752-2.64-9.16-.211-2.006-.185-2.086.396-2.218.924-.237 2.402-2.059 2.587-3.194.106-.554.238-.977.238-1.531 0-1.188.712-2.693 1.69-3.643l.817-.766-1.055.211c-1.425.317-2.56.211-3.483-.264-.475-.264-1.24-.397-2.01-.4z"/></svg>
